<svg width="180" height="180" viewBox="0 0 180 180" fill="none" xmlns="http://www.w3.org/2000/svg">
<rect width="180" height="180" fill="black"/>
<path d="M143.659 126.351V139.779H89.114C57.627 139.779 36.4878 115.56 36.4878 85.7024C36.4878 55.8452 59.5236 34.197 87.1898 34.197C117.496 34.197 138.635 57.1747 138.635 87.3244C138.635 107.968 127.655 125.733 101.824 125.733C112.876 118.875 119.01 103.82 119.01 85.9507C119.01 61.4337 106.898 42.7482 87.5003 42.7482C68.1024 42.7482 55.9856 61.4337 55.9856 85.9507C55.9856 112.95 68.2188 130.565 93.4229 130.565C110.137 130.565 143.653 126.351 143.653 126.351H143.659Z" fill="white"/>
</svg>
