<svg width="62" height="22" viewBox="0 0 62 22" fill="none" xmlns="http://www.w3.org/2000/svg">
<path d="M22.1791 18.9495V21.7107H10.891C4.37476 21.7107 0 16.7306 0 10.591C0 4.4515 4.76725 0 10.4928 0C16.7646 0 21.1393 4.7249 21.1393 10.9246C21.1393 15.1696 18.867 18.8225 13.5214 18.8225C15.8086 17.4124 17.0779 14.3165 17.0779 10.6421C17.0779 5.60068 14.5715 1.75837 10.557 1.75837C6.54264 1.75837 4.03507 5.60068 4.03507 10.6421C4.03507 16.194 6.56674 19.8162 11.7827 19.8162C15.2417 19.8162 22.1779 18.9495 22.1779 18.9495H22.1791ZM29.1383 21.9989C31.2706 21.9989 33.023 20.2984 34.1041 19.1424V21.7096H37.4345V6.86897H34.1041V17.1912C33.1986 18.5774 31.8249 19.1117 30.2481 19.1117C28.4956 19.1117 27.5018 18.1305 27.5018 16.3687V6.86897H24.1714V17.004C24.1714 20.0363 25.9536 22 29.1372 22L29.1383 21.9989ZM40.7512 4.14407H44.3065V0.629609H40.7512V4.14407ZM44.1941 21.7107V6.86897H40.8636V21.7107H44.1941ZM50.9513 21.7107V0.629609H47.6209V21.7107H50.9513ZM57.7453 19.6529V9.4101H61.2857V7.43959H57.7453V2.73851H54.3862V17.6971C54.3862 20.4118 56.0227 21.7107 58.4178 21.7107H61.2834V19.2762L57.7453 19.6529Z" fill="currentColor"/>
</svg>